<?xml version="1.0" standalone="no"?>
<!DOCTYPE svg PUBLIC "-//W3C//DTD SVG 20010904//EN"
 "http://www.w3.org/TR/2001/REC-SVG-20010904/DTD/svg10.dtd">
<svg version="1.0" xmlns="http://www.w3.org/2000/svg"
 width="452.000000pt" height="452.000000pt" viewBox="0 0 452.000000 452.000000"
 preserveAspectRatio="xMidYMid meet">

<g transform="translate(0.000000,452.000000) scale(0.100000,-0.100000)"
fill="#000000" stroke="none">
<path d="M360 2350 l0 -2170 1099 0 1099 0 31 26 c41 35 43 89 5 128 l-27 26
-1013 0 -1014 0 0 1990 0 1990 815 0 815 0 0 -635 0 -635 635 0 635 0 0 -335
0 -336 25 -24 c26 -27 72 -33 107 -14 45 24 48 54 48 456 l0 378 -663 663
-662 662 -968 0 -967 0 0 -2170z m2470 1375 l475 -475 -478 0 -477 0 0 475 c0
261 1 475 3 475 1 0 216 -214 477 -475z"/>
<path d="M3135 2164 c-373 -61 -665 -322 -756 -678 -76 -294 8 -614 219 -838
116 -123 271 -215 437 -259 114 -31 326 -31 440 0 93 25 228 87 297 136 26 19
51 35 55 35 5 0 127 -119 273 -265 l265 -265 63 63 62 62 -265 265 c-146 146
-265 268 -265 272 0 5 16 30 35 56 49 69 111 204 136 297 31 114 31 326 0 440
-43 163 -135 319 -252 431 -170 161 -363 242 -594 249 -66 2 -133 1 -150 -1z
m320 -204 c204 -63 354 -189 445 -375 56 -113 74 -189 74 -320 0 -331 -209
-606 -529 -696 -101 -29 -267 -31 -365 -6 -301 78 -523 342 -546 651 -28 368
232 699 602 766 78 14 240 4 319 -20z"/>
</g>
</svg>
