<?xml version="1.0" standalone="no"?>
<!DOCTYPE svg PUBLIC "-//W3C//DTD SVG 20010904//EN"
 "http://www.w3.org/TR/2001/REC-SVG-20010904/DTD/svg10.dtd">
<svg version="1.0" xmlns="http://www.w3.org/2000/svg"
 width="512.000000pt" height="512.000000pt" viewBox="0 0 512.000000 512.000000"
 preserveAspectRatio="xMidYMid meet">

<g transform="translate(0.000000,512.000000) scale(0.100000,-0.100000)"
fill="#000000" stroke="none">
<path d="M948 5084 c-249 -60 -409 -291 -377 -546 31 -251 266 -443 519 -425
188 13 364 141 431 314 31 81 38 222 14 306 -72 255 -335 413 -587 351z"/>
<path d="M2155 5037 c-26 -14 -48 -37 -62 -67 l-23 -44 0 -591 1 -590 35 40
c108 120 153 160 209 187 33 15 66 28 73 28 9 0 12 80 12 365 l0 365 1195 0
1195 0 0 -1070 0 -1070 -1195 0 -1195 0 0 180 0 180 -67 -70 c-76 -81 -125
-113 -203 -133 l-55 -14 0 -181 c0 -201 3 -210 75 -260 l33 -22 463 0 c255 0
465 -3 467 -7 2 -5 -97 -462 -220 -1018 -242 -1092 -241 -1088 -193 -1154 26
-37 90 -71 135 -71 45 0 109 33 135 70 23 32 31 66 377 1640 l118 535 129 3
c71 1 133 -1 137 -5 4 -4 111 -480 238 -1058 127 -577 236 -1062 242 -1076 17
-43 68 -88 112 -100 107 -29 210 50 209 159 0 26 -100 496 -221 1046 -122 549
-221 1007 -221 1017 0 18 15 19 459 19 l458 0 33 23 c18 12 43 35 54 50 l21
28 3 1280 c2 1260 2 1280 -18 1318 -11 22 -34 50 -52 63 l-33 23 -1410 2
-1410 3 -40 -23z"/>
<path d="M3087 3970 l-478 -170 -39 20 c-52 26 -131 26 -185 0 -30 -14 -85
-71 -204 -210 -89 -104 -166 -190 -171 -190 -5 0 -66 49 -136 110 -71 60 -128
108 -129 107 0 -1 2 -128 4 -282 l3 -280 70 -60 c123 -105 182 -129 263 -106
64 17 95 47 285 271 l185 217 544 319 c382 224 547 325 554 342 17 37 -9 76
-53 79 -24 1 -192 -53 -513 -167z"/>
<path d="M840 3992 c-60 -20 -127 -59 -150 -87 -8 -10 -158 -151 -332 -312
-175 -161 -326 -308 -335 -326 -26 -48 -24 -152 4 -197 33 -53 493 -561 531
-587 95 -63 234 -26 292 77 30 54 34 147 8 195 -9 17 -91 113 -182 215 -125
140 -162 188 -153 196 112 102 408 364 412 364 3 0 -34 -53 -82 -117 -47 -65
-102 -140 -121 -166 l-35 -48 30 -32 c292 -317 317 -357 317 -507 -1 -73 -5
-94 -31 -150 -72 -158 -244 -253 -400 -221 -31 6 -60 11 -65 11 -5 0 -7 -465
-6 -1043 l3 -1042 25 -49 c83 -162 286 -191 414 -60 68 70 66 42 66 906 l0
778 85 0 86 0 -3 -807 -3 -808 -22 -49 c-13 -27 -23 -50 -23 -52 0 -2 18 -13
40 -24 123 -63 275 -11 340 116 l25 49 0 1715 c0 1434 -2 1723 -14 1765 -33
120 -120 222 -236 277 l-70 33 -180 2 c-151 2 -189 0 -235 -15z"/>
</g>
</svg>
