<?xml version="1.0" standalone="no"?>
<!DOCTYPE svg PUBLIC "-//W3C//DTD SVG 20010904//EN"
 "http://www.w3.org/TR/2001/REC-SVG-20010904/DTD/svg10.dtd">
<svg version="1.0" xmlns="http://www.w3.org/2000/svg"
 width="256.000000pt" height="256.000000pt" viewBox="0 0 256.000000 256.000000"
 preserveAspectRatio="xMidYMid meet">

<g transform="translate(0.000000,256.000000) scale(0.100000,-0.100000)"
fill="#000000" stroke="none">
<path d="M201 2335 c-24 -8 -61 -31 -83 -52 -69 -67 -68 -59 -68 -760 0 -445
3 -638 12 -671 16 -64 86 -134 150 -150 32 -8 167 -12 418 -12 l372 0 -7 -33
c-14 -72 -85 -197 -153 -267 l-67 -70 -73 0 c-89 0 -112 -10 -112 -50 0 -62
-22 -60 690 -60 712 0 690 -2 690 60 0 40 -23 50 -112 50 l-73 0 -67 70 c-68
70 -139 195 -153 267 l-7 33 372 0 c251 0 386 4 418 12 64 16 134 86 150 150
17 66 17 1270 0 1336 -16 64 -86 134 -150 150 -73 19 -2087 16 -2147 -3z
m2165 -129 l34 -34 0 -526 0 -526 -1120 0 -1120 0 0 526 0 526 34 34 34 34
1052 0 1052 0 34 -34z m32 -1271 c-3 -66 -7 -78 -31 -102 l-27 -28 -1056 -3
-1056 -2 -34 34 c-32 32 -34 38 -34 105 l0 71 1121 0 1121 0 -4 -75z m-948
-262 c0 -10 13 -55 29 -100 29 -84 73 -162 125 -220 l28 -33 -352 0 -352 0 29
33 c49 56 100 148 127 229 14 42 26 84 26 92 0 14 22 16 170 16 155 0 170 -2
170 -17z"/>
<path d="M1248 949 c-27 -16 -23 -65 7 -85 23 -15 27 -15 50 0 61 40 6 122
-57 85z"/>
</g>
</svg>
